<?xml version="1.0" standalone="no"?><!DOCTYPE svg PUBLIC "-//W3C//DTD SVG 1.1//EN" "http://www.w3.org/Graphics/SVG/1.1/DTD/svg11.dtd"><svg t="1619835595644" class="icon" viewBox="0 0 1024 1024" version="1.1" xmlns="http://www.w3.org/2000/svg" p-id="3237" xmlns:xlink="http://www.w3.org/1999/xlink" width="200" height="200"><defs><style type="text/css"></style></defs><path d="M262.769778 56.888889a205.880889 205.880889 0 0 1 205.880889 205.880889v162.531555c0 23.950222-19.399111 43.349333-43.349334 43.349334H262.769778A205.880889 205.880889 0 1 1 262.769778 56.888889z m0 910.222222a205.880889 205.880889 0 1 1 0-411.761778h162.531555c23.950222 0 43.349333 19.399111 43.349334 43.349334v162.531555A205.880889 205.880889 0 0 1 262.769778 967.111111zM761.230222 56.888889a205.880889 205.880889 0 0 1 0 411.761778h-162.531555a43.349333 43.349333 0 0 1-43.349334-43.349334V262.769778A205.880889 205.880889 0 0 1 761.230222 56.888889z m0 910.222222a205.880889 205.880889 0 0 1-205.880889-205.880889v-162.531555c0-23.950222 19.399111-43.349333 43.349334-43.349334h162.531555a205.880889 205.880889 0 0 1 0 411.761778z" p-id="3238"></path></svg>